<svg xmlns="http://www.w3.org/2000/svg" version="1.1" xmlns:xlink="http://www.w3.org/1999/xlink" xmlns:svgjs="http://svgjs.dev/svgjs" width="1500" height="1500" viewBox="0 0 1500 1500"><rect width="1500" height="1500" fill="#ffffff"></rect><g transform="matrix(0.6666666666666666,0,0,0.6666666666666666,249.39393939393938,537.7025045416518)"><svg viewBox="0 0 396 168" data-background-color="#ffffff" preserveAspectRatio="xMidYMid meet" height="636" width="1500" xmlns="http://www.w3.org/2000/svg" xmlns:xlink="http://www.w3.org/1999/xlink"><g id="tight-bounds" transform="matrix(1,0,0,1,0.2400000000000091,0.1178755589681657)"><svg viewBox="0 0 395.52 167.76424888206367" height="167.76424888206367" width="395.52"><g><svg viewBox="0 0 582.7972565760001 247.20000000000002" height="167.76424888206367" width="395.52"><g transform="matrix(1,0,0,1,234.73965657600002,0)"><svg viewBox="0 0 348.05760000000004 247.20000000000002" height="247.20000000000002" width="348.05760000000004"><g id="textblocktransform"><svg viewBox="0 0 348.05760000000004 247.20000000000002" height="247.20000000000002" width="348.05760000000004" id="textblock"><g><svg viewBox="0 0 348.05760000000004 247.20000000000002" height="247.20000000000002" width="348.05760000000004"><g transform="matrix(1,0,0,1,0,0)"><svg width="348.05760000000004" viewBox="1.9 -43.35 61.6 43.75" height="247.20000000000002" data-palette-color="#335a02"><path d="M10.55 0L1.9 0 1.9-42.95 19.1-42.95 19.1-34.6 10.55-34.6 10.55-27.75 18.65-27.75 18.65-19.5 10.55-19.5 10.55 0ZM30.7 0.4Q26.05 0.4 23.77-2.88 21.5-6.15 21.5-12.8L21.5-12.8 21.5-31.3Q21.5-37.25 24.15-40.3 26.8-43.35 32.05-43.35L32.05-43.35Q36.3-43.35 38.65-41.65 41-39.95 41.9-36.7 42.8-33.45 42.8-28.35L42.8-28.35 34.4-28.35 34.4-32.2Q34.4-33.75 33.97-34.6 33.55-35.45 32.45-35.45L32.45-35.45Q30-35.45 30-32.25L30-32.25 30-11.45Q30-9.5 30.5-8.5 31-7.5 32.25-7.5L32.25-7.5Q33.5-7.5 34-8.5 34.5-9.5 34.5-11.45L34.5-11.45 34.5-17.6 32.2-17.6 32.2-25 42.7-25 42.7 0 39.25 0 37.8-3.6Q35.5 0.4 30.7 0.4L30.7 0.4ZM58.4 0L49.8 0 49.8-34.7 44.7-34.7 44.7-42.95 63.5-42.95 63.5-34.7 58.4-34.7 58.4 0Z" opacity="1" transform="matrix(1,0,0,1,0,0)" fill="#335a02" class="wordmark-text-0" data-fill-palette-color="primary" id="text-0"></path></svg></g></svg></g></svg></g></svg></g><g transform="matrix(1,0,0,1,0,35.409165312)"><svg viewBox="0 0 176.38166937600002 176.38166937600002" height="176.38166937600002" width="176.38166937600002"><g><svg xmlns="http://www.w3.org/2000/svg" xmlns:xlink="http://www.w3.org/1999/xlink" version="1.0" x="0" y="0" viewBox="20 20 60 60" enable-background="new 0 0 100 100" xml:space="preserve" height="176.38166937600002" width="176.38166937600002" class="icon-icon-0" data-fill-palette-color="accent" id="icon-0"><path d="M20 26.667A6.67 6.67 0 0 1 26.667 33.334V63.334C26.667 72.539 34.128 80 43.333 80S60 72.539 60 63.334V40A3.33 3.33 0 0 1 63.333 36.667 3.33 3.33 0 0 1 66.667 40V56.666C66.667 64.023 72.637 70 80 70V63.334A6.67 6.67 0 0 1 73.333 56.666V40C73.333 34.476 68.854 30 63.333 30S53.333 34.476 53.333 40V63.334C53.333 68.857 48.854 73.334 43.333 73.334S33.333 68.857 33.333 63.334V33.334C33.333 25.973 27.363 20 20 20z" fill="#99a28e" data-fill-palette-color="accent"></path></svg></g></svg></g></svg></g><defs></defs></svg><rect width="395.52" height="167.76424888206367" fill="none" stroke="none" visibility="hidden"></rect></g></svg></g></svg>